<svg width="21" height="21" viewBox="0 0 21 21" fill="none" xmlns="http://www.w3.org/2000/svg">
<path d="M18.375 14.0017V6.9979C18.3747 6.76866 18.3144 6.5435 18.2001 6.34481C18.0857 6.14613 17.9213 5.98086 17.7233 5.86546L11.4889 2.23721C11.1885 2.06234 10.8472 1.97021 10.4996 1.97021C10.152 1.97021 9.81066 2.06234 9.51029 2.23721L3.27674 5.86546C3.07867 5.98086 2.91428 6.14613 2.79994 6.34481C2.68559 6.5435 2.62528 6.76866 2.625 6.9979V14.0017C2.62514 14.2311 2.68538 14.4564 2.79973 14.6553C2.91409 14.8541 3.07855 15.0195 3.27674 15.135L9.51111 18.7632C9.81157 18.9379 10.1529 19.0298 10.5004 19.0298C10.8479 19.0298 11.1893 18.9379 11.4897 18.7632L17.7241 15.135C17.9221 15.0194 18.0864 14.854 18.2006 14.6551C18.3148 14.4563 18.3749 14.231 18.375 14.0017Z" stroke="#5E5E5E" stroke-width="1.125" stroke-linecap="round" stroke-linejoin="round"/>
<path d="M2.83008 6.31592L10.5 10.8276M10.5 10.8276L18.1699 6.31592M10.5 10.8276V19.0308" stroke="#5E5E5E" stroke-width="1.125" stroke-linecap="round" stroke-linejoin="round"/>
<path d="M10.5 6.89062C11.0437 6.89062 11.4844 6.59681 11.4844 6.23438C11.4844 5.87194 11.0437 5.57812 10.5 5.57812C9.95634 5.57812 9.51562 5.87194 9.51562 6.23438C9.51562 6.59681 9.95634 6.89062 10.5 6.89062Z" fill="#5E5E5E"/>
<path d="M8.53125 13.125C8.89369 13.125 9.1875 12.6843 9.1875 12.1406C9.1875 11.597 8.89369 11.1562 8.53125 11.1562C8.16881 11.1562 7.875 11.597 7.875 12.1406C7.875 12.6843 8.16881 13.125 8.53125 13.125Z" fill="#5E5E5E"/>
<path d="M4.59375 14.4375C4.95619 14.4375 5.25 13.9968 5.25 13.4531C5.25 12.9095 4.95619 12.4688 4.59375 12.4688C4.23131 12.4688 3.9375 12.9095 3.9375 13.4531C3.9375 13.9968 4.23131 14.4375 4.59375 14.4375Z" fill="#5E5E5E"/>
<path d="M12.4688 13.125C12.8312 13.125 13.125 12.6843 13.125 12.1406C13.125 11.597 12.8312 11.1562 12.4688 11.1562C12.1063 11.1562 11.8125 11.597 11.8125 12.1406C11.8125 12.6843 12.1063 13.125 12.4688 13.125Z" fill="#5E5E5E"/>
<path d="M16.4062 10.8281C16.7687 10.8281 17.0625 10.3874 17.0625 9.84375C17.0625 9.30009 16.7687 8.85938 16.4062 8.85938C16.0438 8.85938 15.75 9.30009 15.75 9.84375C15.75 10.3874 16.0438 10.8281 16.4062 10.8281Z" fill="#5E5E5E"/>
<path d="M12.4688 16.7344C12.8312 16.7344 13.125 16.2937 13.125 15.75C13.125 15.2063 12.8312 14.7656 12.4688 14.7656C12.1063 14.7656 11.8125 15.2063 11.8125 15.75C11.8125 16.2937 12.1063 16.7344 12.4688 16.7344Z" fill="#5E5E5E"/>
<path d="M16.4062 14.4375C16.7687 14.4375 17.0625 13.9968 17.0625 13.4531C17.0625 12.9095 16.7687 12.4688 16.4062 12.4688C16.0438 12.4688 15.75 12.9095 15.75 13.4531C15.75 13.9968 16.0438 14.4375 16.4062 14.4375Z" fill="#5E5E5E"/>
</svg>
