<svg width="22" height="22" viewBox="0 0 22 22" fill="none" xmlns="http://www.w3.org/2000/svg">
<path d="M15.5499 8.23366C15.5471 5.5295 15.5068 4.12883 14.7194 3.17C14.5674 2.98455 14.3976 2.81446 14.2125 2.66216C13.1996 1.8335 11.6962 1.8335 8.68955 1.8335C5.68289 1.8335 4.17955 1.8335 3.16755 2.66308C2.98239 2.81538 2.8126 2.98547 2.66064 3.17091C1.83105 4.18016 1.83105 5.6835 1.83105 8.69016C1.83105 11.6968 1.83105 13.2002 2.66155 14.2112C2.81433 14.397 2.9833 14.566 3.16847 14.7182C4.12822 15.5065 5.52889 15.5468 8.23306 15.5487" stroke="#5E5E5E" stroke-width="1.125" stroke-linecap="round" stroke-linejoin="round"/>
<path d="M12.8589 8.2733L15.5777 8.23389M12.8461 20.1689L15.5649 20.1295M20.1409 12.8539L20.1152 15.5672M8.25906 12.8667L8.2334 15.5801M10.5296 8.2733C9.76698 8.40989 8.54048 8.55014 8.25906 10.1286M17.8703 20.1295C18.6357 20.0039 19.8631 19.882 20.1693 18.309M17.8703 8.2733C18.633 8.40989 19.8595 8.55014 20.1409 10.1286M10.5416 20.1276C9.77798 19.992 8.5524 19.8517 8.27007 18.2732" stroke="#5E5E5E" stroke-width="1.125" stroke-linecap="round" stroke-linejoin="round"/>
</svg>
