<svg width="43" height="43" viewBox="0 0 43 43" fill="none" xmlns="http://www.w3.org/2000/svg">
<path d="M20.4102 29.2848H22.185V19.5233H20.4102V29.2848ZM21.2976 16.9977C21.6076 16.9977 21.8674 16.893 22.0768 16.6836C22.2862 16.4742 22.3903 16.2144 22.3892 15.9044C22.388 15.5944 22.2833 15.3353 22.075 15.1271C21.8668 14.9188 21.6076 14.8141 21.2976 14.8129C20.9876 14.8117 20.7285 14.9164 20.5203 15.1271C20.312 15.3377 20.2073 15.5974 20.2061 15.9062C20.2049 16.215 20.3097 16.4742 20.5203 16.6836C20.7309 16.893 20.99 16.9977 21.2976 16.9977ZM21.303 37.2715C19.0939 37.2715 17.0174 36.8527 15.0733 36.015C13.1293 35.1761 11.4379 34.0378 9.9991 32.6002C8.56031 31.1626 7.42147 29.473 6.58257 27.5313C5.74367 25.5896 5.32422 23.5137 5.32422 21.3034C5.32422 19.0932 5.74367 17.0167 6.58257 15.0738C7.42029 13.1298 8.55677 11.4384 9.99201 9.99959C11.4272 8.5608 13.1175 7.42196 15.0627 6.58306C17.0079 5.74416 19.0844 5.32471 21.2923 5.32471C23.5002 5.32471 25.5767 5.74416 27.5219 6.58306C29.466 7.42077 31.1574 8.55784 32.5962 9.99427C34.035 11.4307 35.1738 13.1209 36.0127 15.0649C36.8516 17.009 37.2711 19.0849 37.2711 21.2928C37.2711 23.5007 36.8522 25.5772 36.0145 27.5224C35.1768 29.4676 34.0385 31.159 32.5997 32.5967C31.1609 34.0343 29.4713 35.1731 27.5308 36.0132C25.5903 36.8533 23.5144 37.2727 21.303 37.2715ZM21.2976 35.4967C25.2614 35.4967 28.6188 34.1212 31.3698 31.3702C34.1207 28.6193 35.4962 25.2619 35.4962 21.2981C35.4962 17.3343 34.1207 13.977 31.3698 11.226C28.6188 8.47502 25.2614 7.09953 21.2976 7.09953C17.3339 7.09953 13.9765 8.47502 11.2255 11.226C8.47453 13.977 7.09904 17.3343 7.09904 21.2981C7.09904 25.2619 8.47453 28.6193 11.2255 31.3702C13.9765 34.1212 17.3339 35.4967 21.2976 35.4967Z" fill="white"/>
</svg>
