<svg width="28" height="28" viewBox="0 0 28 28" fill="none" xmlns="http://www.w3.org/2000/svg">
<path d="M18.7002 1.1001H16.5002C16.2085 1.1001 15.9287 1.21599 15.7224 1.42228C15.5161 1.62857 15.4002 1.90836 15.4002 2.2001V20.8913H19.8002V2.2001C19.8002 1.90836 19.6843 1.62857 19.478 1.42228C19.2717 1.21599 18.9919 1.1001 18.7002 1.1001ZM12.1002 7.7001H9.9002C9.60846 7.7001 9.32867 7.81599 9.12238 8.02228C8.91609 8.22857 8.8002 8.50836 8.8002 8.8001V20.8913H13.2002V8.8001C13.2002 8.50836 13.0843 8.22857 12.878 8.02228C12.6717 7.81599 12.3919 7.7001 12.1002 7.7001ZM5.5002 14.3001H3.3002C3.00846 14.3001 2.72867 14.416 2.52238 14.6223C2.31609 14.8286 2.2002 15.1084 2.2002 15.4001V20.8913H6.6002V15.4001C6.6002 15.1084 6.4843 14.8286 6.27801 14.6223C6.07172 14.416 5.79193 14.3001 5.5002 14.3001Z" fill="none"/>
</svg>
