<svg width="33" height="33" viewBox="0 0 33 33" fill="none" xmlns="http://www.w3.org/2000/svg">
<path fill-rule="evenodd" clip-rule="evenodd" d="M7.7945 6.54498C7.83163 6.23277 7.94109 5.93353 8.11416 5.67105C8.28724 5.40857 8.51916 5.19008 8.79149 5.03295C9.06382 4.87583 9.36905 4.7844 9.68292 4.76594C9.99678 4.74748 10.3106 4.80249 10.5995 4.9266C12.0598 5.55085 15.3322 7.03448 19.4847 9.4311C23.6386 11.8291 26.5605 13.9232 27.8296 14.8734C28.9131 15.686 28.9159 17.2975 27.831 18.1129C26.5742 19.0575 23.6881 21.1241 19.4847 23.5524C15.2772 25.9806 12.0432 27.4464 10.5967 28.0624C9.351 28.5945 7.95675 27.7874 7.7945 26.444C7.60475 24.8737 7.25 21.3084 7.25 16.4931C7.25 11.6806 7.60338 8.1166 7.7945 6.54498Z" fill="white"/>
</svg>
