<svg width="32" height="32" viewBox="0 0 32 32" fill="none" xmlns="http://www.w3.org/2000/svg">
<path d="M16 21.3335C18.228 21.3335 20 19.5588 20 17.3335C20 15.1082 18.228 13.3335 16 13.3335C13.772 13.3335 12 15.1082 12 17.3335C12 19.5588 13.772 21.3335 16 21.3335Z" fill="white"/>
<path d="M27.756 14.9145C27.4432 13.3786 26.8291 11.9198 25.9493 10.6225C25.0875 9.34442 23.9874 8.24437 22.7093 7.3825C21.4104 6.5058 19.9522 5.89203 18.4173 5.57584C17.6108 5.41201 16.7896 5.33159 15.9667 5.33584V2.6665L10.6667 6.6665L15.9667 10.6665V8.0025C16.612 7.99984 17.2573 8.06117 17.88 8.18917C19.073 8.43501 20.2063 8.91198 21.216 9.59317C22.2113 10.264 23.0678 11.1206 23.7387 12.1158C24.7802 13.6562 25.3357 15.4737 25.3333 17.3332C25.3343 18.5811 25.0849 19.8166 24.6 20.9665C24.3655 21.521 24.078 22.0514 23.7413 22.5505C23.4054 23.048 23.0223 23.5119 22.5973 23.9358C21.3066 25.224 19.6681 26.1076 17.8827 26.4785C16.6411 26.7303 15.3616 26.7303 14.12 26.4785C12.9265 26.2324 11.7927 25.755 10.7827 25.0732C9.7886 24.4028 8.93301 23.5472 8.26267 22.5532C7.22237 21.0111 6.6666 19.1933 6.66667 17.3332H4C3.9998 19.725 4.71437 22.0623 6.052 24.0452C6.9159 25.3199 8.01456 26.4186 9.28933 27.2825C11.2702 28.6231 13.6081 29.3376 16 29.3332C16.8124 29.3339 17.6228 29.2522 18.4187 29.0892C19.9531 28.7728 21.4108 28.159 22.7093 27.2825C23.3465 26.852 23.9408 26.3613 24.484 25.8172C25.0287 25.2736 25.5199 24.6788 25.9507 24.0412C27.2903 22.0609 28.0043 19.724 28 17.3332C28.0007 16.5208 27.919 15.7104 27.756 14.9145Z" fill="white"/>
</svg>
