<svg width="33" height="33" viewBox="0 0 33 33" fill="none" xmlns="http://www.w3.org/2000/svg">
<path d="M14.8845 30.25C14.2658 30.25 13.7332 30.0437 13.2868 29.6312C12.8404 29.2187 12.5709 28.7146 12.4783 28.1188L12.1689 25.85C11.871 25.7354 11.5905 25.5979 11.3274 25.4375C11.0643 25.2771 10.8063 25.1052 10.5533 24.9219L8.42203 25.8156C7.84911 26.0677 7.2762 26.0906 6.70328 25.8844C6.13036 25.6781 5.68349 25.3115 5.36266 24.7844L3.74703 21.9656C3.4262 21.4385 3.33453 20.8771 3.47203 20.2812C3.60953 19.6854 3.91891 19.1927 4.40016 18.8031L6.22203 17.4281C6.19911 17.2677 6.18766 17.1128 6.18766 16.9634V16.0352C6.18766 15.8867 6.19911 15.7323 6.22203 15.5719L4.40016 14.1969C3.91891 13.8073 3.60953 13.3146 3.47203 12.7188C3.33453 12.1229 3.4262 11.5615 3.74703 11.0344L5.36266 8.21562C5.68349 7.68854 6.13036 7.32188 6.70328 7.11563C7.2762 6.90938 7.84911 6.93229 8.42203 7.18437L10.5533 8.07812C10.8054 7.89479 11.0689 7.72292 11.3439 7.5625C11.6189 7.40208 11.8939 7.26458 12.1689 7.15L12.4783 4.88125C12.5699 4.28542 12.8394 3.78125 13.2868 3.36875C13.7341 2.95625 14.2667 2.75 14.8845 2.75H18.1158C18.7345 2.75 19.2676 2.95625 19.7149 3.36875C20.1622 3.78125 20.4313 4.28542 20.522 4.88125L20.8314 7.15C21.1293 7.26458 21.4103 7.40208 21.6743 7.5625C21.9383 7.72292 22.1959 7.89479 22.447 8.07812L24.5783 7.18437C25.1512 6.93229 25.7241 6.90938 26.297 7.11563C26.8699 7.32188 27.3168 7.68854 27.6377 8.21562L29.2533 11.0344C29.5741 11.5615 29.6658 12.1229 29.5283 12.7188C29.3908 13.3146 29.0814 13.8073 28.6002 14.1969L26.7783 15.5719C26.8012 15.7323 26.8127 15.8872 26.8127 16.0366V16.9634C26.8127 17.1128 26.7897 17.2677 26.7439 17.4281L28.5658 18.8031C29.047 19.1927 29.3564 19.6854 29.4939 20.2812C29.6314 20.8771 29.5397 21.4385 29.2189 21.9656L27.5689 24.7844C27.2481 25.3115 26.8012 25.6781 26.2283 25.8844C25.6554 26.0906 25.0824 26.0677 24.5095 25.8156L22.447 24.9219C22.1949 25.1052 21.9314 25.2771 21.6564 25.4375C21.3814 25.5979 21.1064 25.7354 20.8314 25.85L20.522 28.1188C20.4304 28.7146 20.1613 29.2187 19.7149 29.6312C19.2685 30.0437 18.7354 30.25 18.1158 30.25H14.8845ZM16.5689 21.3125C17.8981 21.3125 19.0324 20.8427 19.972 19.9031C20.9116 18.9635 21.3814 17.8292 21.3814 16.5C21.3814 15.1708 20.9116 14.0365 19.972 13.0969C19.0324 12.1573 17.8981 11.6875 16.5689 11.6875C15.2168 11.6875 14.0765 12.1573 13.1479 13.0969C12.2193 14.0365 11.7555 15.1708 11.7564 16.5C11.7573 17.8292 12.2216 18.9635 13.1493 19.9031C14.0769 20.8427 15.2168 21.3125 16.5689 21.3125Z" fill="white"/>
</svg>
