<svg width="35" height="35" viewBox="0 0 35 35" fill="none" xmlns="http://www.w3.org/2000/svg">
<path d="M17.497 26.9792C18.5081 26.9792 19.369 26.6253 20.0797 25.9175C20.7904 25.2097 21.1457 24.3493 21.1457 23.3362C21.1457 22.3232 20.7913 21.4623 20.0826 20.7535C19.3738 20.0448 18.5139 19.6894 17.5028 19.6875C16.4917 19.6855 15.6308 20.0399 14.9201 20.7506C14.2094 21.4613 13.854 22.3212 13.854 23.3304C13.854 24.3396 14.2079 25.2005 14.9157 25.9131C15.6235 26.6257 16.4839 26.9811 17.497 26.9792ZM9.55197 15.3125C10.2549 13.7948 11.3107 12.565 12.7195 11.6229C14.1292 10.6798 15.7227 10.2083 17.4999 10.2083C19.3646 10.2083 21.0359 10.7406 22.5136 11.8052C23.9914 12.8698 25.0453 14.2357 25.6753 15.9031C25.7482 16.1326 25.8615 16.3343 26.0151 16.5083C26.1677 16.6833 26.3554 16.7708 26.578 16.7708C26.8133 16.7708 26.9946 16.6785 27.122 16.4937C27.2484 16.31 27.279 16.1146 27.2138 15.9075C26.5712 13.8211 25.3725 12.1061 23.6176 10.7625C21.8627 9.41887 19.8356 8.74804 17.5363 8.74998C15.7241 8.74998 14.0743 9.18311 12.5868 10.0494C11.0983 10.9166 9.90342 12.0541 9.00217 13.4619V9.31144C9.00217 9.10436 8.93217 8.93082 8.79217 8.79082C8.65217 8.65179 8.47912 8.58228 8.27301 8.58228C8.06593 8.58228 7.89238 8.65179 7.75238 8.79082C7.61238 8.92984 7.54287 9.10339 7.54384 9.31144V15.5925C7.54384 15.9269 7.65662 16.2069 7.88218 16.4325C8.10773 16.658 8.38773 16.7708 8.72218 16.7708H15.0032C15.2103 16.7708 15.3838 16.7008 15.5238 16.5608C15.6638 16.4208 15.7334 16.2473 15.7324 16.0402C15.7314 15.8331 15.6619 15.6601 15.5238 15.521C15.3858 15.382 15.2122 15.3125 15.0032 15.3125H9.55197Z" fill="white"/>
</svg>
