<svg width="35" height="35" viewBox="0 0 35 35" fill="none" xmlns="http://www.w3.org/2000/svg">
<path d="M17.503 26.9792C16.4919 26.9792 15.631 26.6253 14.9203 25.9175C14.2096 25.2097 13.8543 24.3493 13.8543 23.3362C13.8543 22.3232 14.2087 21.4623 14.9174 20.7535C15.6262 20.0448 16.4861 19.6894 17.4972 19.6875C18.5083 19.6855 19.3692 20.0399 20.0799 20.7506C20.7906 21.4613 21.146 22.3212 21.146 23.3304C21.146 24.3396 20.7921 25.2005 20.0843 25.9131C19.3765 26.6257 18.5161 26.9811 17.503 26.9792ZM25.448 15.3125C24.7451 13.7948 23.6893 12.565 22.2805 11.6229C20.8708 10.6798 19.2773 10.2083 17.5001 10.2083C15.6354 10.2083 13.9641 10.7406 12.4864 11.8052C11.0086 12.8698 9.9547 14.2357 9.3247 15.9031C9.25179 16.1326 9.13852 16.3343 8.98491 16.5083C8.83227 16.6833 8.64463 16.7708 8.42199 16.7708C8.18672 16.7708 8.0054 16.6785 7.87804 16.4937C7.75165 16.31 7.72102 16.1146 7.78616 15.9075C8.4288 13.8211 9.62755 12.1061 11.3824 10.7625C13.1373 9.41887 15.1644 8.74804 17.4637 8.74998C19.2759 8.74998 20.9257 9.18311 22.4132 10.0494C23.9017 10.9166 25.0966 12.0541 25.9978 13.4619V9.31144C25.9978 9.10436 26.0678 8.93082 26.2078 8.79082C26.3478 8.65179 26.5209 8.58228 26.727 8.58228C26.9341 8.58228 27.1076 8.65179 27.2476 8.79082C27.3876 8.92984 27.4571 9.10339 27.4562 9.31144V15.5925C27.4562 15.9269 27.3434 16.2069 27.1178 16.4325C26.8923 16.658 26.6123 16.7708 26.2778 16.7708H19.9968C19.7897 16.7708 19.6162 16.7008 19.4762 16.5608C19.3362 16.4208 19.2666 16.2473 19.2676 16.0402C19.2686 15.8331 19.3381 15.6601 19.4762 15.521C19.6142 15.382 19.7878 15.3125 19.9968 15.3125H25.448Z" fill="white"/>
</svg>
